<?xml version="1.0" standalone="no"?>
<!DOCTYPE svg PUBLIC "-//W3C//DTD SVG 20010904//EN"
 "http://www.w3.org/TR/2001/REC-SVG-20010904/DTD/svg10.dtd">
<svg version="1.0" xmlns="http://www.w3.org/2000/svg"
 width="500.000000pt" height="500.000000pt" viewBox="0 0 500.000000 500.000000"
 preserveAspectRatio="xMidYMid meet">
<metadata>
Created by potrace 1.14, written by Peter Selinger 2001-2017
</metadata>
<g transform="translate(0.000000,500.000000) scale(0.100000,-0.100000)"
fill="#000000" stroke="none">
<path d="M2285 4989 c-696 -68 -1319 -403 -1738 -934 -26 -33 -52 -66 -57 -72
-42 -51 -172 -266 -224 -371 -296 -594 -344 -1260 -136 -1894 159 -484 467
-913 873 -1217 331 -247 718 -409 1122 -470 33 -5 67 -9 75 -10 8 0 42 -3 75
-7 113 -14 525 -7 554 10 3 2 30 7 60 10 157 19 452 105 627 184 736 333 1260
983 1428 1772 13 63 27 144 31 180 4 36 9 74 11 85 12 59 15 324 5 430 -39
406 -141 737 -329 1063 -383 666 -1064 1124 -1827 1228 -141 19 -422 26 -550
13z"/>
</g>
</svg>
